<svg id="autorenew_black_24dp" xmlns="http://www.w3.org/2000/svg" width="71.724" height="71.724" viewBox="0 0 71.724 71.724">
  <path id="Pfad_1" data-name="Pfad 1" d="M0,0H71.724V71.724H0Z" fill="none"/>
  <path id="Pfad_2" data-name="Pfad 2" d="M27.908,15.942v8.965L39.862,12.954,27.908,1V9.965A23.866,23.866,0,0,0,7.706,46.6l4.363-4.363a17.544,17.544,0,0,1-2.092-8.368A17.945,17.945,0,0,1,27.908,15.942Zm20.2,5.2-4.363,4.363A17.9,17.9,0,0,1,27.908,51.8V42.839L15.954,54.793,27.908,66.747V57.781a23.866,23.866,0,0,0,20.2-36.639Z" transform="translate(7.954 1.988)" fill="#404040"/>
</svg>